<svg xmlns="http://www.w3.org/2000/svg" width="100%" height="100%" viewBox="0 0 224.6 50"> <g transform="translate(-30 -20)"> <path fill="#8a8a8a" d="M40 70V50l10 10 10 10z" /> <path fill="#bfbfbf" d="M80 60V40L70 50 60 60zM30 30v20l10-10 10-10z" /> <path fill="#8a8a8a" d="M70 20v20L60 30 50 20z" /> <circle cx="55" cy="45" r="5" fill="#858585" /> </g> <g fill="#858585"> <path d="M73.27 22.88 86 10.01h4.48L76.49 24l14.44 16.02h-4.57L74.12 26.25l-.85.86v12.91h-3.32V10.01h3.32zM110.16 13.16H97.97v8.91h11.83v3.15H97.97v11.66h12.19v3.15H94.65V10.02h15.51v3.15zM119.47 10.02v30.01h-3.32V10.02ZM135.45 13.16v26.86h-3.32V13.16h-7.26v-3.15h17.84v3.15zM162.03 31.57H149.3l-3.59 8.46h-3.68l13.76-31.45 13.4 31.45h-3.68l-3.5-8.46zm-1.3-3.15-5.02-12.01-5.11 12.01zM178.06 10.02c2.02 0 5.02.13 7.26 1.67 1.75 1.17 3.27 3.46 3.27 6.66 0 4.59-3 7.96-7.53 8.28l9.5 13.41h-4.04l-9.1-13.14h-.85v13.14h-3.32V10.03h4.8zm-1.48 13.9h2.11c4.12 0 6.59-1.98 6.59-5.49 0-1.66-.49-3.33-2.38-4.41-1.34-.76-2.87-.86-4.3-.86h-2.02v10.75zM193.48 25.04c0-8.96 6.95-15.52 15.56-15.52s15.56 6.57 15.56 15.52-6.9 15.52-15.56 15.52-15.56-6.62-15.56-15.52zm3.41 0c0 6.88 5.42 12.37 12.15 12.37s12.15-5.49 12.15-12.37c0-6.88-5.42-12.38-12.15-12.38s-12.15 5.49-12.15 12.38z" /> </g> </svg>
